<?xml version="1.0" encoding="UTF-8"?>
<svg version="1.1" xmlns="http://www.w3.org/2000/svg" width="96" height="24">
<path d="M0 0 C4.4543867 0.34020265 6.54511955 1.48272629 10.2109375 3.98046875 C11.24992188 4.66496094 12.28890625 5.34945313 13.359375 6.0546875 C15.8359375 8.29296875 15.8359375 8.29296875 16.8046875 10.91015625 C16.8359375 13.29296875 16.8359375 13.29296875 14.9609375 15.73046875 C13.94556849 16.61573476 12.89927145 17.46593123 11.8359375 18.29296875 C11.13339844 18.84855469 10.43085938 19.40414063 9.70703125 19.9765625 C3.79227632 24.31004623 3.79227632 24.31004623 -0.6640625 24.23046875 C-3.1640625 23.29296875 -3.1640625 23.29296875 -4.1640625 22.29296875 C-4.26305773 20.74341316 -4.29485774 19.18943202 -4.296875 17.63671875 C-4.29816406 16.69699219 -4.29945313 15.75726563 -4.30078125 14.7890625 C-4.29691406 13.80035156 -4.29304687 12.81164062 -4.2890625 11.79296875 C-4.29292969 10.80425781 -4.29679688 9.81554687 -4.30078125 8.796875 C-4.29949219 7.85714844 -4.29820312 6.91742187 -4.296875 5.94921875 C-4.29574707 5.08103516 -4.29461914 4.21285156 -4.29345703 3.31835938 C-4.07913233 -0.03642877 -3.44373271 0.31886414 0 0 Z M-1.1640625 3.29296875 C-1.1640625 4.28296875 -1.1640625 5.27296875 -1.1640625 6.29296875 C-0.1740625 6.29296875 0.8159375 6.29296875 1.8359375 6.29296875 C1.8359375 5.30296875 1.8359375 4.31296875 1.8359375 3.29296875 C0.8459375 3.29296875 -0.1440625 3.29296875 -1.1640625 3.29296875 Z M4.8359375 7.29296875 C4.8359375 8.28296875 4.8359375 9.27296875 4.8359375 10.29296875 C5.8259375 9.96296875 6.8159375 9.63296875 7.8359375 9.29296875 C7.5059375 8.63296875 7.1759375 7.97296875 6.8359375 7.29296875 C6.1759375 7.29296875 5.5159375 7.29296875 4.8359375 7.29296875 Z M-1.1640625 8.29296875 C-1.1640625 12.25296875 -1.1640625 16.21296875 -1.1640625 20.29296875 C-0.1740625 20.29296875 0.8159375 20.29296875 1.8359375 20.29296875 C1.8359375 16.66296875 1.8359375 13.03296875 1.8359375 9.29296875 C0.8459375 8.96296875 -0.1440625 8.63296875 -1.1640625 8.29296875 Z M10.8359375 10.29296875 C10.5059375 11.28296875 10.1759375 12.27296875 9.8359375 13.29296875 C10.8259375 13.29296875 11.8159375 13.29296875 12.8359375 13.29296875 C12.5059375 12.30296875 12.1759375 11.31296875 11.8359375 10.29296875 C11.5059375 10.29296875 11.1759375 10.29296875 10.8359375 10.29296875 Z M4.8359375 12.29296875 C4.5059375 13.61296875 4.1759375 14.93296875 3.8359375 16.29296875 C5.1559375 16.29296875 6.4759375 16.29296875 7.8359375 16.29296875 C7.8359375 14.97296875 7.8359375 13.65296875 7.8359375 12.29296875 C6.8459375 12.29296875 5.8559375 12.29296875 4.8359375 12.29296875 Z " fill="#FFB948" transform="translate(4.1640625,-0.29296875)"/>
<path d="M0 0 C0.66 0.99 1.32 1.98 2 3 C1.34 3.66 0.68 4.32 0 5 C-3.125 4.625 -3.125 4.625 -6 4 C-4.49650603 7.00698793 -1.9581052 7.58257459 1 9 C1.33 9.33 1.66 9.66 2 10 C1.4 16.6 1.4 16.6 -1 19 C-3.09375 19.30078125 -3.09375 19.30078125 -5.5 19.3125 C-6.2940625 19.32925781 -7.088125 19.34601562 -7.90625 19.36328125 C-8.5971875 19.24339844 -9.288125 19.12351562 -10 19 C-10.66 18.01 -11.32 17.02 -12 16 C-11.67 15.34 -11.34 14.68 -11 14 C-8.69 14 -6.38 14 -4 14 C-5.91703089 11.86002921 -5.91703089 11.86002921 -8.625 10.75 C-11 9 -11 9 -11.5 6 C-11 3 -11 3 -10 1.125 C-6.62193105 -0.77516379 -3.83381731 -0.36512546 0 0 Z " fill="#FFB849" transform="translate(70,2)"/>
<path d="M0 0 C0.72445312 0.10828125 1.44890625 0.2165625 2.1953125 0.328125 C2.39065724 2.74438918 2.57684654 5.16077729 2.7578125 7.578125 C2.81388672 8.26003906 2.86996094 8.94195312 2.92773438 9.64453125 C3.17717504 13.0701831 3.33410995 16.05513677 2.1953125 19.328125 C0.5453125 19.328125 -1.1046875 19.328125 -2.8046875 19.328125 C-2.8046875 18.008125 -2.8046875 16.688125 -2.8046875 15.328125 C-5.4446875 15.328125 -8.0846875 15.328125 -10.8046875 15.328125 C-11.5625 13.6875 -11.5625 13.6875 -11.8046875 11.328125 C-10.109375 8.53125 -10.109375 8.53125 -7.6796875 5.578125 C-6.89335938 4.59328125 -6.10703125 3.6084375 -5.296875 2.59375 C-2.8046875 0.328125 -2.8046875 0.328125 0 0 Z M-3.8046875 8.328125 C-4.7946875 9.813125 -4.7946875 9.813125 -5.8046875 11.328125 C-4.8146875 11.328125 -3.8246875 11.328125 -2.8046875 11.328125 C-3.1346875 10.338125 -3.4646875 9.348125 -3.8046875 8.328125 Z " fill="#FFBA47" transform="translate(52.8046875,1.671875)"/>
<path d="M0 0 C0.70125 0.00515625 1.4025 0.0103125 2.125 0.015625 C2.82625 0.01046875 3.5275 0.0053125 4.25 0 C6.125 0.265625 6.125 0.265625 8.125 2.265625 C8.68381444 6.36359757 8.2620529 8.03434823 6.125 11.640625 C5.465 12.506875 4.805 13.373125 4.125 14.265625 C5.445 14.595625 6.765 14.925625 8.125 15.265625 C8.125 16.585625 8.125 17.905625 8.125 19.265625 C3.835 19.265625 -0.455 19.265625 -4.875 19.265625 C-3.76053167 13.69328334 -3.76053167 13.69328334 -0.875 11.203125 C1.64632231 9.0151506 2.55502984 7.57857656 3.125 4.265625 C2.135 4.265625 1.145 4.265625 0.125 4.265625 C0.125 4.925625 0.125 5.585625 0.125 6.265625 C-1.525 6.265625 -3.175 6.265625 -4.875 6.265625 C-4.22256476 3.00344879 -3.71990039 0.52698589 0 0 Z " fill="#FFB947" transform="translate(32.875,1.734375)"/>
<path d="M0 0 C2.875 -0.125 2.875 -0.125 6 0 C6.66 0.66 7.32 1.32 8 2 C8.66 1.34 9.32 0.68 10 0 C12.625 -0.125 12.625 -0.125 15 0 C14.690625 0.5775 14.38125 1.155 14.0625 1.75 C12.62702436 4.76367213 12.62702436 4.76367213 12 8 C13.3916876 10.13344768 13.3916876 10.13344768 15 12 C15 12.66 15 13.32 15 14 C12.125 14.125 12.125 14.125 9 14 C8.34 13.34 7.68 12.68 7 12 C6.67 12.66 6.34 13.32 6 14 C4.02 14 2.04 14 0 14 C0.53625 13.113125 1.0725 12.22625 1.625 11.3125 C3.33895916 8.14625802 3.33895916 8.14625802 2.25 5.3125 C1.63125 4.1678125 1.63125 4.1678125 1 3 C0.67 2.01 0.34 1.02 0 0 Z " fill="#FFBA47" transform="translate(81,7)"/>
<path d="M0 0 C1.65 0 3.3 0 5 0 C5 4.62 5 9.24 5 14 C3.35 13.67 1.7 13.34 0 13 C0 8.71 0 4.42 0 0 Z " fill="#FFB749" transform="translate(74,7)"/>
<path d="M0 0 C1.65 0 3.3 0 5 0 C5 1.32 5 2.64 5 4 C3.35 4 1.7 4 0 4 C0 2.68 0 1.36 0 0 Z " fill="#FFBE42" transform="translate(74,2)"/>
</svg>
